<svg width="100%" height="62" viewBox="0 0 608 62" fill="none" xmlns="http://www.w3.org/2000/svg">
<path d="M561.371 20.6758C561.371 17.3086 562.023 14.793 563.328 13.1289C564.641 11.457 566.578 10.6211 569.141 10.6211C570.023 10.6211 570.719 10.6953 571.227 10.8438V12.5195C570.625 12.3242 569.938 12.2266 569.164 12.2266C567.328 12.2266 565.926 12.8008 564.957 13.9492C563.988 15.0898 563.457 16.8867 563.363 19.3398H563.504C564.363 17.9961 565.723 17.3242 567.582 17.3242C569.121 17.3242 570.332 17.7891 571.215 18.7188C572.105 19.6484 572.551 20.9102 572.551 22.5039C572.551 24.2852 572.062 25.6875 571.086 26.7109C570.117 27.7266 568.805 28.2344 567.148 28.2344C565.375 28.2344 563.969 27.5703 562.93 26.2422C561.891 24.9062 561.371 23.0508 561.371 20.6758ZM567.125 26.582C568.234 26.582 569.094 26.2344 569.703 25.5391C570.32 24.8359 570.629 23.8242 570.629 22.5039C570.629 21.3711 570.344 20.4805 569.773 19.832C569.203 19.1836 568.352 18.8594 567.219 18.8594C566.516 18.8594 565.871 19.0039 565.285 19.293C564.699 19.582 564.23 19.9805 563.879 20.4883C563.535 20.9961 563.363 21.5234 563.363 22.0703C563.363 22.875 563.52 23.625 563.832 24.3203C564.145 25.0156 564.586 25.5664 565.156 25.9727C565.734 26.3789 566.391 26.582 567.125 26.582ZM586.402 19.4102C586.402 22.3711 585.933 24.582 584.995 26.043C584.066 27.5039 582.64 28.2344 580.718 28.2344C578.874 28.2344 577.472 27.4883 576.511 25.9961C575.55 24.4961 575.07 22.3008 575.07 19.4102C575.07 16.4258 575.535 14.2109 576.464 12.7656C577.394 11.3203 578.812 10.5977 580.718 10.5977C582.578 10.5977 583.988 11.3516 584.949 12.8594C585.917 14.3672 586.402 16.5508 586.402 19.4102ZM577.038 19.4102C577.038 21.9023 577.331 23.7188 577.917 24.8594C578.503 25.9922 579.437 26.5586 580.718 26.5586C582.015 26.5586 582.953 25.9844 583.531 24.8359C584.117 23.6797 584.41 21.8711 584.41 19.4102C584.41 16.9492 584.117 15.1484 583.531 14.0078C582.953 12.8594 582.015 12.2852 580.718 12.2852C579.437 12.2852 578.503 12.8516 577.917 13.9844C577.331 15.1094 577.038 16.918 577.038 19.4102ZM590.585 15.9766C590.585 17.3047 590.729 18.3008 591.018 18.9648C591.307 19.6289 591.776 19.9609 592.425 19.9609C593.706 19.9609 594.346 18.6328 594.346 15.9766C594.346 13.3359 593.706 12.0156 592.425 12.0156C591.776 12.0156 591.307 12.3438 591.018 13C590.729 13.6562 590.585 14.6484 590.585 15.9766ZM595.952 15.9766C595.952 17.7578 595.651 19.1055 595.05 20.0195C594.456 20.9258 593.581 21.3789 592.425 21.3789C591.331 21.3789 590.479 20.9141 589.87 19.9844C589.268 19.0547 588.968 17.7188 588.968 15.9766C588.968 14.2031 589.257 12.8672 589.835 11.9688C590.421 11.0703 591.284 10.6211 592.425 10.6211C593.557 10.6211 594.428 11.0859 595.038 12.0156C595.647 12.9453 595.952 14.2656 595.952 15.9766ZM600.897 22.8438C600.897 24.1797 601.042 25.1797 601.331 25.8438C601.62 26.5 602.093 26.8281 602.749 26.8281C603.405 26.8281 603.889 26.5039 604.202 25.8555C604.514 25.1992 604.671 24.1953 604.671 22.8438C604.671 21.5078 604.514 20.5195 604.202 19.8789C603.889 19.2305 603.405 18.9062 602.749 18.9062C602.093 18.9062 601.62 19.2305 601.331 19.8789C601.042 20.5195 600.897 21.5078 600.897 22.8438ZM606.276 22.8438C606.276 24.6172 605.975 25.9609 605.374 26.875C604.78 27.7812 603.905 28.2344 602.749 28.2344C601.639 28.2344 600.784 27.7695 600.182 26.8398C599.589 25.9102 599.292 24.5781 599.292 22.8438C599.292 21.0703 599.581 19.7344 600.159 18.8359C600.745 17.9375 601.608 17.4883 602.749 17.4883C603.858 17.4883 604.721 17.9492 605.339 18.8711C605.964 19.7852 606.276 21.1094 606.276 22.8438ZM603.253 10.8672L593.749 28H592.026L601.53 10.8672H603.253Z" fill="white"/>
<line x1="6.5" y1="55.5001" x2="601.5" y2="55.5" stroke="#7879F1" stroke-width="13" stroke-linecap="round"/>
<line x1="6.5" y1="55.5001" x2="391.5" y2="55.5" stroke="white" stroke-width="13" stroke-linecap="round"/>
</svg>
