<svg width="60" height="60" viewBox="0 0 60 60" fill="none" xmlns="http://www.w3.org/2000/svg">
<path d="M7.65034 13.846C5.74181 15.054 4.53188 17.1072 4.39984 19.362V40.638C4.53188 42.8928 5.74181 44.946 7.65034 46.154L26.7396 56.8314C28.7902 57.8361 31.1901 57.8361 33.2406 56.8314L52.3496 46.154C54.2582 44.946 55.4681 42.8928 55.6001 40.638V19.362C55.4681 17.1072 54.2582 15.054 52.3496 13.846L33.2603 3.1686C31.2098 2.16388 28.8099 2.16388 26.7593 3.1686L7.65034 13.846Z" fill="#14BF96"/>
<path d="M49.6114 24.7204C39.0128 24.7204 31.0934 33.5066 31.0934 44.2825V44.7356H28.9658V44.2825C28.9658 33.5066 21.0858 24.7598 10.4081 24.7204C10.4081 25.3902 10.4081 26.0797 10.4081 26.6904C10.3653 34.8427 15.3924 42.1634 23.0164 45.0508C25.2819 45.8815 27.6756 46.3083 30.0887 46.3116C32.5209 46.3083 34.9341 45.8816 37.2201 45.0508C44.8326 42.1523 49.8488 34.8359 49.8086 26.6904C49.7099 26.06 49.6705 25.3902 49.6114 24.7204Z" fill="white"/>
<path d="M30.0099 25.5478C33.2739 25.5478 35.9199 22.9018 35.9199 19.6378C35.9199 16.3738 33.2739 13.7278 30.0099 13.7278C26.7459 13.7278 24.0999 16.3738 24.0999 19.6378C24.0999 22.9018 26.7459 25.5478 30.0099 25.5478Z" fill="white"/>
</svg>
