<svg width="120" height="24" viewBox="0 0 120 24" fill="none" xmlns="http://www.w3.org/2000/svg">
<path d="M10.1437 6.62758C10.9303 4.66658 11.3236 3.68608 12 3.68608C12.6763 3.68608 13.0696 4.66658 13.8562 6.62758L13.8928 6.7189C14.3372 7.82676 14.5594 8.3807 15.0123 8.71739C15.4651 9.05407 16.0596 9.10731 17.2485 9.21379L17.4634 9.23304C19.4092 9.4073 20.3822 9.49443 20.5903 10.1134C20.7985 10.7324 20.076 11.3897 18.6309 12.7044L18.1487 13.1432C17.4172 13.8087 17.0514 14.1415 16.8809 14.5776C16.8491 14.659 16.8227 14.7423 16.8018 14.8271C16.6897 15.2818 16.7968 15.7645 17.0111 16.73L17.0777 17.0305C17.4714 18.8048 17.6682 19.692 17.3246 20.0747C17.1961 20.2177 17.0292 20.3206 16.8438 20.3712C16.3476 20.5066 15.6431 19.9326 14.2342 18.7845C13.309 18.0306 12.8464 17.6537 12.3153 17.5689C12.1064 17.5355 11.8935 17.5355 11.6846 17.5689C11.1535 17.6537 10.6909 18.0306 9.76577 18.7845C8.35681 19.9326 7.65234 20.5066 7.15614 20.3712C6.97072 20.3206 6.80381 20.2177 6.67538 20.0747C6.33171 19.692 6.52854 18.8048 6.92222 17.0305L6.98889 16.73C7.2031 15.7645 7.31021 15.2818 7.19815 14.8271C7.17725 14.7423 7.15081 14.659 7.11901 14.5776C6.94854 14.1415 6.58279 13.8087 5.85128 13.1432L5.369 12.7044C3.92395 11.3897 3.20143 10.7324 3.40961 10.1134C3.61779 9.49443 4.5907 9.4073 6.53651 9.23304L6.75145 9.21379C7.94036 9.10731 8.53482 9.05407 8.98767 8.71739C9.44052 8.3807 9.66272 7.82676 10.1071 6.71889L10.1437 6.62758Z" fill="#E2A03F" stroke="#E2A03F"/>
<path d="M34.1437 6.62758C34.9303 4.66658 35.3236 3.68608 36 3.68608C36.6763 3.68608 37.0696 4.66658 37.8562 6.62758L37.8928 6.7189C38.3372 7.82676 38.5594 8.3807 39.0123 8.71739C39.4651 9.05407 40.0596 9.10731 41.2485 9.21379L41.4634 9.23304C43.4092 9.4073 44.3822 9.49443 44.5903 10.1134C44.7985 10.7324 44.076 11.3897 42.6309 12.7044L42.1487 13.1432C41.4172 13.8087 41.0514 14.1415 40.8809 14.5776C40.8491 14.659 40.8227 14.7423 40.8018 14.8271C40.6897 15.2818 40.7968 15.7645 41.0111 16.73L41.0777 17.0305C41.4714 18.8048 41.6682 19.692 41.3246 20.0747C41.1961 20.2177 41.0292 20.3206 40.8438 20.3712C40.3476 20.5066 39.6431 19.9326 38.2342 18.7845C37.309 18.0306 36.8464 17.6537 36.3153 17.5689C36.1064 17.5355 35.8935 17.5355 35.6846 17.5689C35.1535 17.6537 34.6909 18.0306 33.7658 18.7845C32.3568 19.9326 31.6523 20.5066 31.1561 20.3712C30.9707 20.3206 30.8038 20.2177 30.6754 20.0747C30.3317 19.692 30.5285 18.8048 30.9222 17.0305L30.9889 16.73C31.2031 15.7645 31.3102 15.2818 31.1982 14.8271C31.1772 14.7423 31.1508 14.659 31.119 14.5776C30.9485 14.1415 30.5828 13.8087 29.8513 13.1432L29.369 12.7044C27.924 11.3897 27.2014 10.7324 27.4096 10.1134C27.6178 9.49443 28.5907 9.4073 30.5365 9.23304L30.7514 9.21379C31.9404 9.10731 32.5348 9.05407 32.9877 8.71739C33.4405 8.3807 33.6627 7.82676 34.1071 6.71889L34.1437 6.62758Z" fill="#E2A03F" stroke="#E2A03F"/>
<path d="M58.1437 6.62758C58.9303 4.66658 59.3236 3.68608 60 3.68608C60.6763 3.68608 61.0696 4.66658 61.8562 6.62758L61.8928 6.7189C62.3372 7.82676 62.5594 8.3807 63.0123 8.71739C63.4651 9.05407 64.0596 9.10731 65.2485 9.21379L65.4634 9.23304C67.4092 9.4073 68.3822 9.49443 68.5903 10.1134C68.7985 10.7324 68.076 11.3897 66.6309 12.7044L66.1487 13.1432C65.4172 13.8087 65.0514 14.1415 64.8809 14.5776C64.8491 14.659 64.8227 14.7423 64.8018 14.8271C64.6897 15.2818 64.7968 15.7645 65.0111 16.73L65.0777 17.0305C65.4714 18.8048 65.6682 19.692 65.3246 20.0747C65.1961 20.2177 65.0292 20.3206 64.8438 20.3712C64.3476 20.5066 63.6431 19.9326 62.2342 18.7845C61.309 18.0306 60.8464 17.6537 60.3153 17.5689C60.1064 17.5355 59.8935 17.5355 59.6846 17.5689C59.1535 17.6537 58.6909 18.0306 57.7658 18.7845C56.3568 19.9326 55.6523 20.5066 55.1561 20.3712C54.9707 20.3206 54.8038 20.2177 54.6754 20.0747C54.3317 19.692 54.5285 18.8048 54.9222 17.0305L54.9889 16.73C55.2031 15.7645 55.3102 15.2818 55.1982 14.8271C55.1772 14.7423 55.1508 14.659 55.119 14.5776C54.9485 14.1415 54.5828 13.8087 53.8513 13.1432L53.369 12.7044C51.924 11.3897 51.2014 10.7324 51.4096 10.1134C51.6178 9.49443 52.5907 9.4073 54.5365 9.23304L54.7514 9.21379C55.9404 9.10731 56.5348 9.05407 56.9877 8.71739C57.4405 8.3807 57.6627 7.82676 58.1071 6.71889L58.1437 6.62758Z" fill="#E2A03F" stroke="#E2A03F"/>
<path d="M82.1437 6.62758C82.9303 4.66658 83.3236 3.68608 84 3.68608C84.6763 3.68608 85.0696 4.66658 85.8562 6.62758L85.8928 6.7189C86.3372 7.82676 86.5594 8.3807 87.0123 8.71739C87.4651 9.05407 88.0596 9.10731 89.2485 9.21379L89.4634 9.23304C91.4092 9.4073 92.3822 9.49443 92.5903 10.1134C92.7985 10.7324 92.076 11.3897 90.6309 12.7044L90.1487 13.1432C89.4172 13.8087 89.0514 14.1415 88.8809 14.5776C88.8491 14.659 88.8227 14.7423 88.8018 14.8271C88.6897 15.2818 88.7968 15.7645 89.0111 16.73L89.0777 17.0305C89.4714 18.8048 89.6682 19.692 89.3246 20.0747C89.1961 20.2177 89.0292 20.3206 88.8438 20.3712C88.3476 20.5066 87.6431 19.9326 86.2342 18.7845C85.309 18.0306 84.8464 17.6537 84.3153 17.5689C84.1064 17.5355 83.8935 17.5355 83.6846 17.5689C83.1535 17.6537 82.6909 18.0306 81.7658 18.7845C80.3568 19.9326 79.6523 20.5066 79.1561 20.3712C78.9707 20.3206 78.8038 20.2177 78.6754 20.0747C78.3317 19.692 78.5285 18.8048 78.9222 17.0305L78.9889 16.73C79.2031 15.7645 79.3102 15.2818 79.1982 14.8271C79.1772 14.7423 79.1508 14.659 79.119 14.5776C78.9485 14.1415 78.5828 13.8087 77.8513 13.1432L77.369 12.7044C75.924 11.3897 75.2014 10.7324 75.4096 10.1134C75.6178 9.49443 76.5907 9.4073 78.5365 9.23304L78.7514 9.21379C79.9404 9.10731 80.5348 9.05407 80.9877 8.71739C81.4405 8.3807 81.6627 7.82676 82.1071 6.71889L82.1437 6.62758Z" fill="#E2A03F" stroke="#E2A03F"/>
<path d="M106.144 6.62758C106.93 4.66658 107.324 3.68608 108 3.68608C108.676 3.68608 109.07 4.66658 109.856 6.62758L109.893 6.7189C110.337 7.82676 110.559 8.3807 111.012 8.71739C111.465 9.05407 112.06 9.10731 113.248 9.21379L113.463 9.23304C115.409 9.4073 116.382 9.49443 116.59 10.1134C116.799 10.7324 116.076 11.3897 114.631 12.7044L114.149 13.1432C113.417 13.8087 113.051 14.1415 112.881 14.5776C112.849 14.659 112.823 14.7423 112.802 14.8271C112.69 15.2818 112.797 15.7645 113.011 16.73L113.078 17.0305C113.471 18.8048 113.668 19.692 113.325 20.0747C113.196 20.2177 113.029 20.3206 112.844 20.3712C112.348 20.5066 111.643 19.9326 110.234 18.7845C109.309 18.0306 108.846 17.6537 108.315 17.5689C108.106 17.5355 107.894 17.5355 107.685 17.5689C107.154 17.6537 106.691 18.0306 105.766 18.7845C104.357 19.9326 103.652 20.5066 103.156 20.3712C102.971 20.3206 102.804 20.2177 102.675 20.0747C102.332 19.692 102.529 18.8048 102.922 17.0305L102.989 16.73C103.203 15.7645 103.31 15.2818 103.198 14.8271C103.177 14.7423 103.151 14.659 103.119 14.5776C102.949 14.1415 102.583 13.8087 101.851 13.1432L101.369 12.7044C99.924 11.3897 99.2014 10.7324 99.4096 10.1134C99.6178 9.49443 100.591 9.4073 102.537 9.23304L102.751 9.21379C103.94 9.10731 104.535 9.05407 104.988 8.71739C105.441 8.3807 105.663 7.82676 106.107 6.71889L106.144 6.62758Z" stroke="#E2A03F"/>
</svg>
